<svg xmlns="http://www.w3.org/2000/svg" xmlns:xlink="http://www.w3.org/1999/xlink" width="100" zoomAndPan="magnify" viewBox="0 0 75 74.999997" height="100" preserveAspectRatio="xMidYMid meet" version="1.0"><defs><g/><clipPath id="5f86dadac1"><path d="M 27.074219 16.503906 L 48 16.503906 L 48 46.503906 L 27.074219 46.503906 Z M 27.074219 16.503906 " clip-rule="nonzero"/></clipPath></defs><g fill="#001532" fill-opacity="1"><g transform="translate(24.367161, 53.348489)"><g><path d="M 0.3125 0 L 2.425781 0 C 2.445312 -0.433594 2.511719 -0.871094 2.53125 -1.300781 L 2.609375 -1.300781 C 2.628906 -0.871094 2.699219 -0.433594 2.71875 0 L 4.828125 0 C 4.863281 -0.847656 5.050781 -2.804688 5.191406 -3.671875 L 3.664062 -3.671875 C 3.609375 -2.941406 3.496094 -1.414062 3.464844 -0.511719 L 3.398438 -0.511719 L 3.128906 -3.671875 L 2.015625 -3.671875 L 1.742188 -0.511719 L 1.671875 -0.511719 C 1.660156 -1.425781 1.527344 -2.9375 1.476562 -3.671875 L -0.0546875 -3.671875 C 0.0898438 -2.679688 0.1875 -1.703125 0.3125 0 Z M 0.3125 0 "/></g></g></g><g fill="#001532" fill-opacity="1"><g transform="translate(29.498572, 53.348489)"><g><path d="M 0.144531 0 L 3.203125 0 L 3.203125 -1.039062 L 1.582031 -1.039062 L 1.582031 -1.476562 L 3.0625 -1.429688 L 3.0625 -2.242188 L 1.582031 -2.195312 L 1.582031 -2.632812 L 3.195312 -2.632812 L 3.195312 -3.671875 L 0.144531 -3.671875 C 0.160156 -3.246094 0.171875 -2.480469 0.171875 -1.839844 C 0.171875 -1.242188 0.160156 -0.375 0.144531 0 Z M 0.144531 0 "/></g></g></g><g fill="#001532" fill-opacity="1"><g transform="translate(32.820029, 53.348489)"><g><path d="M 0.179688 -2.03125 L 0.179688 -1.402344 L 1.761719 -1.402344 L 1.761719 -2.03125 Z M 0.179688 -2.03125 "/></g></g></g><g fill="#001532" fill-opacity="1"><g transform="translate(34.759952, 53.348489)"><g><path d="M 0.144531 0 L 2.117188 0 C 3.230469 0 3.761719 -0.207031 3.761719 -1.015625 C 3.761719 -1.589844 3.457031 -1.808594 2.222656 -1.859375 L 2.222656 -1.933594 C 3.441406 -1.984375 3.671875 -2.261719 3.671875 -2.800781 C 3.671875 -3.585938 3.027344 -3.671875 2.03125 -3.671875 L 0.144531 -3.671875 C 0.148438 -3.246094 0.167969 -2.335938 0.167969 -1.839844 C 0.167969 -1.503906 0.148438 -0.335938 0.144531 0 Z M 1.886719 -2.257812 C 1.589844 -2.257812 1.421875 -2.3125 1.421875 -2.582031 L 1.421875 -2.871094 L 1.683594 -2.871094 C 1.921875 -2.871094 2.121094 -2.804688 2.121094 -2.59375 L 2.121094 -2.257812 Z M 1.964844 -0.90625 C 1.617188 -0.90625 1.421875 -0.957031 1.421875 -1.183594 L 1.421875 -1.53125 L 1.734375 -1.53125 C 2.011719 -1.53125 2.242188 -1.46875 2.242188 -1.203125 L 2.242188 -0.90625 Z M 1.964844 -0.90625 "/></g></g></g><g fill="#001532" fill-opacity="1"><g transform="translate(38.639799, 53.348489)"><g><path d="M 1.703125 0.0664062 C 2.859375 0.0664062 3.535156 -0.199219 3.535156 -1.320312 L 3.527344 -2.230469 C 3.527344 -2.710938 3.527344 -3.1875 3.542969 -3.671875 L 2.097656 -3.671875 C 2.105469 -3.328125 2.113281 -2.265625 2.113281 -1.886719 C 2.113281 -1.28125 2.113281 -1.453125 2.113281 -0.957031 L 1.878906 -0.957031 C 1.617188 -0.957031 1.582031 -1.386719 1.582031 -1.929688 L 1.589844 -3.671875 L 0.144531 -3.671875 C 0.160156 -3.335938 0.167969 -2.960938 0.167969 -2.554688 L 0.167969 -1.457031 C 0.167969 -0.371094 0.625 0.0664062 1.703125 0.0664062 Z M 1.703125 0.0664062 "/></g></g></g><g fill="#001532" fill-opacity="1"><g transform="translate(42.327097, 53.348489)"><g><path d="M 0.144531 0 L 1.589844 0 C 1.566406 -0.617188 1.566406 -1.226562 1.566406 -1.84375 C 1.566406 -2.457031 1.566406 -3.0625 1.589844 -3.671875 L 0.144531 -3.671875 C 0.167969 -3.0625 0.167969 -2.449219 0.167969 -1.839844 C 0.167969 -1.226562 0.167969 -0.613281 0.144531 0 Z M 0.144531 0 "/></g></g></g><g fill="#001532" fill-opacity="1"><g transform="translate(44.060032, 53.348489)"><g><path d="M 0.144531 0 L 2.742188 0 L 2.851562 -1.117188 C 2.507812 -1.113281 1.996094 -1.105469 1.609375 -1.105469 C 1.601562 -1.300781 1.597656 -1.710938 1.597656 -2.015625 C 1.597656 -2.507812 1.601562 -3.0625 1.617188 -3.671875 L 0.144531 -3.671875 C 0.160156 -3.058594 0.167969 -2.382812 0.167969 -1.835938 C 0.167969 -1.289062 0.160156 -0.617188 0.144531 0 Z M 0.144531 0 "/></g></g></g><g fill="#001532" fill-opacity="1"><g transform="translate(46.851981, 53.348489)"><g><path d="M 0.144531 0 L 1.984375 0 C 3.203125 0 3.660156 -0.601562 3.660156 -1.839844 C 3.660156 -3.050781 3.125 -3.671875 1.871094 -3.671875 L 0.144531 -3.671875 C 0.164062 -3.125 0.171875 -2.449219 0.171875 -1.839844 C 0.171875 -1.226562 0.164062 -0.613281 0.144531 0 Z M 1.589844 -0.960938 L 1.589844 -2.710938 L 1.820312 -2.710938 C 2.121094 -2.710938 2.203125 -2.449219 2.203125 -1.824219 C 2.203125 -1.203125 2.15625 -0.960938 1.847656 -0.960938 Z M 1.589844 -0.960938 "/></g></g></g><g fill="#001532" fill-opacity="1"><g transform="translate(32.879688, 57.45695)"><g><path d="M 0.59375 -0.171875 L 0.609375 -0.71875 L 0.609375 -1.328125 C 0.609375 -1.523438 0.601562 -1.703125 0.59375 -1.859375 C 0.300781 -1.859375 0.109375 -1.851562 0.015625 -1.84375 C 0.00390625 -1.863281 0 -1.894531 0 -1.9375 C 0 -1.976562 0.0078125 -2.003906 0.03125 -2.015625 C 0.0507812 -2.035156 0.0859375 -2.046875 0.140625 -2.046875 C 0.191406 -2.046875 0.300781 -2.046875 0.46875 -2.046875 L 0.828125 -2.046875 C 1.148438 -2.046875 1.347656 -2.046875 1.421875 -2.046875 C 1.429688 -2.035156 1.4375 -2.007812 1.4375 -1.96875 C 1.4375 -1.925781 1.425781 -1.898438 1.40625 -1.890625 C 1.382812 -1.878906 1.34375 -1.867188 1.28125 -1.859375 C 1.226562 -1.859375 1.085938 -1.859375 0.859375 -1.859375 C 0.847656 -1.566406 0.84375 -1.363281 0.84375 -1.25 L 0.84375 -0.625 C 0.84375 -0.34375 0.859375 -0.140625 0.890625 -0.015625 C 0.859375 0.00390625 0.8125 0.015625 0.75 0.015625 C 0.6875 0.015625 0.644531 0 0.625 -0.03125 C 0.601562 -0.0625 0.59375 -0.109375 0.59375 -0.171875 Z M 0.59375 -0.171875 "/></g></g></g><g fill="#001532" fill-opacity="1"><g transform="translate(35.148107, 57.45695)"><g><path d="M 0.234375 -0.171875 L 0.25 -0.6875 L 0.25 -1.3125 C 0.25 -1.601562 0.234375 -1.84375 0.203125 -2.03125 C 0.421875 -2.050781 0.664062 -2.0625 0.9375 -2.0625 C 1.195312 -2.0625 1.34375 -2.046875 1.375 -2.015625 C 1.394531 -1.992188 1.40625 -1.960938 1.40625 -1.921875 C 1.40625 -1.878906 1.394531 -1.835938 1.375 -1.796875 C 1.257812 -1.835938 1.070312 -1.859375 0.8125 -1.859375 C 0.695312 -1.859375 0.582031 -1.859375 0.46875 -1.859375 C 0.476562 -1.765625 0.484375 -1.546875 0.484375 -1.203125 L 0.71875 -1.203125 C 0.894531 -1.203125 1.019531 -1.203125 1.09375 -1.203125 C 1.101562 -1.191406 1.109375 -1.164062 1.109375 -1.125 C 1.109375 -1.082031 1.097656 -1.050781 1.078125 -1.03125 C 1.054688 -1.019531 1.019531 -1.007812 0.96875 -1 C 0.914062 -1 0.84375 -1 0.75 -1 L 0.484375 -1 C 0.484375 -0.550781 0.488281 -0.28125 0.5 -0.1875 C 0.59375 -0.1875 0.664062 -0.1875 0.71875 -0.1875 C 1.0625 -0.1875 1.285156 -0.207031 1.390625 -0.25 C 1.398438 -0.207031 1.40625 -0.164062 1.40625 -0.125 C 1.40625 -0.0820312 1.394531 -0.0546875 1.375 -0.046875 C 1.34375 -0.015625 1.1875 0 0.90625 0 C 0.625 0 0.453125 0 0.390625 0 C 0.328125 0 0.285156 -0.0078125 0.265625 -0.03125 C 0.242188 -0.0625 0.234375 -0.109375 0.234375 -0.171875 Z M 0.234375 -0.171875 "/></g></g></g><g fill="#001532" fill-opacity="1"><g transform="translate(37.481581, 57.45695)"><g><path d="M 1.59375 -0.40625 C 1.6875 -0.375 1.734375 -0.320312 1.734375 -0.25 C 1.734375 -0.1875 1.671875 -0.125 1.546875 -0.0625 C 1.429688 0 1.285156 0.03125 1.109375 0.03125 C 0.816406 0.03125 0.582031 -0.0625 0.40625 -0.25 C 0.238281 -0.445312 0.15625 -0.710938 0.15625 -1.046875 C 0.15625 -1.359375 0.238281 -1.609375 0.40625 -1.796875 C 0.582031 -1.984375 0.820312 -2.078125 1.125 -2.078125 C 1.28125 -2.078125 1.410156 -2.046875 1.515625 -1.984375 C 1.628906 -1.921875 1.6875 -1.84375 1.6875 -1.75 C 1.6875 -1.664062 1.628906 -1.613281 1.515625 -1.59375 C 1.472656 -1.6875 1.410156 -1.757812 1.328125 -1.8125 C 1.242188 -1.863281 1.15625 -1.890625 1.0625 -1.890625 C 0.875 -1.890625 0.71875 -1.8125 0.59375 -1.65625 C 0.46875 -1.507812 0.40625 -1.3125 0.40625 -1.0625 C 0.40625 -0.8125 0.46875 -0.597656 0.59375 -0.421875 C 0.71875 -0.242188 0.890625 -0.15625 1.109375 -0.15625 C 1.210938 -0.15625 1.304688 -0.175781 1.390625 -0.21875 C 1.472656 -0.257812 1.539062 -0.320312 1.59375 -0.40625 Z M 1.59375 -0.40625 "/></g></g></g><g fill="#001532" fill-opacity="1"><g transform="translate(40.175127, 57.45695)"><g><path d="M 0.21875 -0.171875 L 0.234375 -0.71875 L 0.234375 -1.328125 C 0.234375 -1.617188 0.222656 -1.859375 0.203125 -2.046875 C 0.234375 -2.054688 0.273438 -2.0625 0.328125 -2.0625 C 0.429688 -2.0625 0.484375 -2.019531 0.484375 -1.9375 C 0.484375 -1.925781 0.476562 -1.882812 0.46875 -1.8125 C 0.457031 -1.59375 0.453125 -1.390625 0.453125 -1.203125 C 0.554688 -1.203125 0.722656 -1.203125 0.953125 -1.203125 C 1.179688 -1.203125 1.34375 -1.203125 1.4375 -1.203125 L 1.4375 -1.359375 C 1.4375 -1.660156 1.429688 -1.890625 1.421875 -2.046875 C 1.453125 -2.054688 1.492188 -2.0625 1.546875 -2.0625 C 1.648438 -2.0625 1.703125 -2.019531 1.703125 -1.9375 C 1.703125 -1.925781 1.695312 -1.882812 1.6875 -1.8125 C 1.675781 -1.601562 1.671875 -1.414062 1.671875 -1.25 L 1.671875 -0.625 C 1.671875 -0.34375 1.691406 -0.140625 1.734375 -0.015625 C 1.703125 0.00390625 1.65625 0.015625 1.59375 0.015625 C 1.53125 0.015625 1.488281 0 1.46875 -0.03125 C 1.445312 -0.0625 1.4375 -0.109375 1.4375 -0.171875 L 1.4375 -1.03125 C 1.332031 -1.019531 1.171875 -1.015625 0.953125 -1.015625 C 0.722656 -1.015625 0.554688 -1.019531 0.453125 -1.03125 L 0.453125 -0.625 C 0.453125 -0.34375 0.472656 -0.140625 0.515625 -0.015625 C 0.472656 0.00390625 0.425781 0.015625 0.375 0.015625 C 0.3125 0.015625 0.269531 0 0.25 -0.03125 C 0.226562 -0.0625 0.21875 -0.109375 0.21875 -0.171875 Z M 0.21875 -0.171875 "/></g></g></g><g clip-path="url(#5f86dadac1)"><path fill="#468eef" d="M 36.824219 37.921875 L 36.824219 43.886719 L 38.265625 43.886719 L 38.265625 37.3125 L 27.074219 26.308594 L 27.074219 16.511719 L 37.480469 26.867188 L 47.921875 16.511719 L 47.921875 26.539062 L 40.785156 33.859375 L 38.734375 31.804688 L 45.167969 25.183594 L 45.03125 23.273438 L 37.5 30.785156 L 30.0625 23.226562 L 30.0625 25.324219 L 40.972656 36.054688 L 40.972656 46.5 L 33.929688 46.5 L 33.929688 35.261719 Z M 36.824219 37.921875 " fill-opacity="1" fill-rule="nonzero"/></g></svg>